<svg xmlns="http://www.w3.org/2000/svg" version="1.1" xmlns:xlink="http://www.w3.org/1999/xlink" xmlns:svgjs="http://svgjs.dev/svgjs" width="1000" height="623" viewBox="0 0 1000 623"><g transform="matrix(1,0,0,1,-0.6060606060606233,0.2522267206477409)"><svg viewBox="0 0 396 247" data-background-color="#ffffff" preserveAspectRatio="xMidYMid meet" height="623" width="1000" xmlns="http://www.w3.org/2000/svg" xmlns:xlink="http://www.w3.org/1999/xlink"><g id="tight-bounds" transform="matrix(1,0,0,1,0.2400000000000091,-0.09999999999999432)"><svg viewBox="0 0 395.52 247.2" height="247.2" width="395.52"><g><svg></svg></g><g><svg viewBox="0 0 395.52 247.2" height="247.2" width="395.52"><g transform="matrix(1,0,0,1,75.54432,57.88897874850538)"><svg viewBox="0 0 244.43135999999998 131.42204250298923" height="131.42204250298923" width="244.43135999999998"><g><svg viewBox="0 0 244.43135999999998 131.42204250298923" height="131.42204250298923" width="244.43135999999998"><g><svg viewBox="0 0 244.43135999999998 131.42204250298923" height="131.42204250298923" width="244.43135999999998"><g><svg viewBox="0 0 244.43135999999998 131.42204250298923" height="131.42204250298923" width="244.43135999999998"><g id="textblocktransform"><svg viewBox="0 0 244.43135999999998 131.42204250298923" height="131.42204250298923" width="244.43135999999998" id="textblock"><g><svg viewBox="0 0 244.43135999999998 131.42204250298923" height="131.42204250298923" width="244.43135999999998"><g transform="matrix(1,0,0,1,0,0)"><svg width="244.43135999999998" viewBox="0.5400000214576721 -32.279998779296875 61.25 32.939998626708984" height="131.42204250298923" data-palette-color="#755bb4"><path d="M16.6-9.72L16.6-9.72Q16.85-9.72 17.04-9.84L17.04-9.84 17.04-12.06Q18.7-13.18 21.69-13.89 24.68-14.6 27.51-14.6L27.51-14.6Q28.81-13.28 29.68-10.66 30.54-8.03 30.59-5.91L30.59-5.91Q30.1-4.93 28.94-3.81 27.78-2.69 26.15-1.73L26.15-1.73Q22.09 0.66 16.85 0.66L16.85 0.66Q9.33 0.66 5-3.71L5-3.71Q0.54-8.13 0.54-15.95 0.54-23.78 5.42-28.25L5.42-28.25Q7.57-30.25 10.42-31.26 13.28-32.28 16.43-32.28L16.43-32.28Q22.58-32.28 26.51-29.3 30.44-26.32 30.44-21.95L30.44-21.95Q30.44-18.65 28.42-17.08 26.39-15.5 22.92-15.5L22.92-15.5Q21.02-15.5 19.09-16.44 17.16-17.38 16.8-18.21L16.8-18.21Q16.8-20.21 16.87-21.36L16.87-21.36Q16.82-21.39 16.7-21.39L16.7-21.39 16.53-21.39Q16.16-21.39 15.95-21.18 15.75-20.97 15.59-20.31 15.43-19.65 15.43-16.72L15.43-16.72Q15.43-9.72 16.6-9.72ZM61.79-25.88L61.79-25.88 61.79-1.61Q59.06 0.44 54.78 0.44L54.78 0.44Q51.49 0.44 49.56-0.9L49.56-0.9Q47.53-2.27 47.53-4.86L47.53-4.86 47.53-9.69 49.27-9.69Q50.27-9.69 50.52-9.95 50.78-10.21 50.78-10.79L50.78-10.79 43.11-10.79Q43.11-10.21 43.33-9.95 43.55-9.69 44.38-9.69L44.38-9.69 46.24-9.69 46.24-1.61Q44.36-0.39 42.67 0.02 40.99 0.44 39.23 0.44L39.23 0.44Q35.94 0.44 34.01-0.9L34.01-0.9Q31.98-2.27 31.98-4.86L31.98-4.86 31.98-29.15Q33.25-30.49 35.12-31.21 36.98-31.93 39.01-31.93L39.01-31.93Q41.97-31.93 44.02-30.47L44.02-30.47Q46.24-28.81 46.24-25.88L46.24-25.88 46.24-21.53 49.34-21.53Q49.34-22.17 49.11-22.4 48.87-22.63 48.36-22.63L48.36-22.63 47.53-22.63 47.53-29.15Q48.8-30.49 50.67-31.21 52.54-31.93 54.56-31.93L54.56-31.93Q57.52-31.93 59.57-30.47L59.57-30.47Q61.79-28.81 61.79-25.88Z" opacity="1" transform="matrix(1,0,0,1,0,0)" fill="#755bb4" class="wordmark-text-0" data-fill-palette-color="primary" id="text-0"></path></svg></g></svg></g></svg></g></svg></g></svg></g></svg></g></svg></g><path d="M246.252 51.889L246.252 6.048 11.148 6.048 11.148 241.152 246.252 241.152 246.252 195.311 234.4 195.311 234.4 229.3 23 229.3 23 17.9 234.4 17.9 234.4 51.889Z" fill="#755bb4" stroke="transparent" data-fill-palette-color="primary"></path></svg></g><defs></defs></svg><rect width="395.52" height="247.2" fill="none" stroke="none" visibility="hidden"></rect></g></svg></g></svg>