<svg xmlns="http://www.w3.org/2000/svg" version="1.1" xmlns:xlink="http://www.w3.org/1999/xlink" xmlns:svgjs="http://svgjs.dev/svgjs" width="1000" height="1125" viewBox="0 0 1000 1125"><g transform="matrix(1,0,0,1,1.7053025658242404e-13,0)"><svg viewBox="0 0 320 360" data-background-color="#ffffff" preserveAspectRatio="xMidYMid meet" height="1125" width="1000" xmlns="http://www.w3.org/2000/svg" xmlns:xlink="http://www.w3.org/1999/xlink"><g id="tight-bounds" transform="matrix(1,0,0,1,0,0)"><svg viewBox="0 0 320 360" height="360" width="320"><g><svg></svg></g><g><svg viewBox="0 0 320 360" height="360" width="320"><g><path xmlns="http://www.w3.org/2000/svg" d="M20.961 227.22l3.726 4.658-1.863-6.056c-0.466-2.795-3.726 0.466-1.863 1.398M25.153 224.425c1.397 2.329 2.795 4.658 2.795 6.987 0 3.261 2.795 4.658 5.123 5.589-3.261-3.726-5.124-13.974-7.918-12.576M204.017 26.929c7.918 0 15.371-0.932 23.756 0.931 20.495 5.124 37.729 15.371 49.374 29.811l32.606 52.169c1.397 13.042 4.192 27.482 3.726 43.319 3.261 0 2.795-4.658 6.521-5.59-3.726 9.316-5.59 20.961-6.521 34.469-2.329-7.453 0-18.632 0.466-24.687-3.261 5.124-5.124 1.397-5.124-0.932 0.466-3.726-1.397-3.261-2.795-4.658-5.124-4.658-8.384-9.782-12.11-17.7 2.329-6.055 2.795-14.905-4.658-19.563-2.329-1.397-5.124-3.726-6.521-7.453-1.863-5.124-5.124-11.179-4.193-19.097 0.466-2.329-6.987 5.124-11.179 1.863-18.166-12.576-36.332-27.016-58.224-39.127-11.645 0-20.029-4.192-24.221-9.316-3.726-4.658-0.932-10.713 4.658-11.179 3.261 0 6.987-0.932 9.782 0.932 0.466-1.863 2.329-4.192 4.657-4.192M157.904 16.215l0.932 0.466c4.658 0.932 6.987 7.453 12.11 5.124 0 3.261 0.466 6.521-0.466 8.85-1.397 3.726-5.59 3.726-8.85 3.726-31.208-1.863-49.374 11.179-68.471 22.358-5.124 3.261-10.713 5.59-14.906 9.782-20.029 18.632-41.921 35.866-47.045 70.335l-4.192 38.195c-0.466 4.192-5.124 8.384-4.192 13.508l3.26 22.824c-3.261-3.261-5.124 0.932-4.192 2.795 0.466 1.397 2.329 6.055 5.124 1.863 3.726 6.987 7.453 20.495 12.576 26.55 15.837 18.632 36.332 35.4 53.101 52.169 4.192-0.932 7.453-0.932 8.384-3.727 1.397 2.795-1.397 5.59-3.726 6.056 7.453 4.658 15.837 8.85 27.016 9.781 14.44 0.932 27.948 3.261 40.524 6.522 6.521-1.863 13.042-2.795 20.029-3.261 2.329 0 3.726-3.726 6.521-4.658l0.466-4.658c2.795 4.192 2.329-1.397 0.466-4.192 3.261 2.795 4.192 5.124 5.589 6.987 0-1.397 3.726-6.521 3.727-0.466l0.931-6.055c1.397-0.932 1.863 5.124 3.261 0.931 1.397-4.192 4.192-0.932 6.987-2.329-0.932 1.863-0.466 5.59 2.794 3.261l3.727-3.261c2.329 5.59 6.055 3.261 7.918 2.329 20.495-13.042 40.99-28.413 60.553-43.784l-0.466 6.055 2.329-7.453c2.329 2.329 4.192 0.466 5.124-0.931 2.795-4.658 6.521-9.316 12.577-13.508-7.453 20.029-16.303 35.866-27.482 48.908l-4.658 5.59c0 3.261-0.932 7.453-4.658 7.918-1.863 0.466-5.59-0.932-8.384 1.863-1.397 1.863 3.261 5.59-0.466 2.795-3.261-2.329-6.521 0-10.248 0.932-2.795 0.932 1.863 3.726 2.795 5.589 0.932 1.863 1.863 3.726 1.398 6.056l-5.124-5.59c-6.055 3.261-9.782 9.316-14.906 13.974-2.329 1.863-1.397 5.124-1.397 7.918-3.261 0-6.987-0.932-8.85 0.932-1.397 1.863-0.932 4.658-0.932 7.453-4.658-0.466-5.124-7.453-9.315-6.056-4.192 0.932-8.85 1.397-12.577 3.727 2.795 5.59-4.658 2.329-3.726 3.26-6.987-4.192-13.042-7.453-20.495-4.658-15.837-5.124-35.4-2.795-49.84-0.931 0-2.329 0.466-4.658-0.466-5.124-0.932 2.329-3.726 1.397-3.26 1.397-8.85-6.055-17.7-9.782-27.016-14.905-8.384 0.932-16.303-3.261-18.632-5.59-6.521-6.055-13.974-2.795-20.029-4.192-13.042-3.261-17.7-16.769-19.098-26.084-0.932-4.658-4.658-6.521-6.055-6.056-6.055-19.563-15.371-37.263-22.824-55.429-1.863-4.658-1.397-9.316-1.397-14.44 2.329 0.932 4.658 0.466 4.192-2.794-2.329-15.371-7.918-27.016-13.974-38.195 3.261-15.837 3.726-34.469 11.179-48.443 6.521-12.576 18.632-19.098 27.016-29.811 2.795-3.726 2.795-8.85 5.59-12.11 9.316-9.316 18.632-19.098 28.879-27.482 4.658-3.726 10.247 0 17.234-1.397 2.329-8.384 11.645-15.837 20.495-13.508 3.726 0.932 11.179-8.85 13.508-9.782 3.726-1.397 1.863 3.726 1.863 6.987 8.85-6.987 20.961-10.713 32.14-14.906" fill="#8d021f" fill-rule="nonzero" stroke="none" stroke-width="1" stroke-linecap="butt" stroke-linejoin="miter" stroke-miterlimit="10" stroke-dasharray="" stroke-dashoffset="0" font-family="none" font-weight="none" font-size="none" text-anchor="none" style="mix-blend-mode: normal" data-fill-palette-color="tertiary"></path></g><g transform="matrix(1,0,0,1,93.93006374857583,90)"><svg viewBox="0 0 132.13987250284833 180" height="180" width="132.13987250284833"><g><svg viewBox="0 0 132.13987250284833 180" height="180" width="132.13987250284833"><g><svg viewBox="0 0 192 261.54104242271796" height="180" width="132.13987250284833"><g transform="matrix(1,0,0,1,0,149.39806923019154)"><svg viewBox="0 0 192 112.14297319252641" height="112.14297319252641" width="192"><g id="textblocktransform"><svg viewBox="0 0 192 112.14297319252641" height="112.14297319252641" width="192" id="textblock"><g><svg viewBox="0 0 192 112.14297319252641" height="112.14297319252641" width="192"><g transform="matrix(1,0,0,1,0,0)"><svg width="192" viewBox="2.4000000953674316 -35.45000076293945 61.54999923706055 35.95000076293945" height="112.14297319252641" data-palette-color="#8d021f"><path d="M30.25-32.4L30.25-32.4Q30.85-32 30.95-31.38 31.05-30.75 30.65-30.15L30.65-30.15Q30.3-29.7 29.75-29.65 29.2-29.6 28.7-29.85L28.7-29.85Q26.8-31.1 24.63-31.8 22.45-32.5 19.95-32.5L19.95-32.5Q16.9-32.5 14.28-31.43 11.65-30.35 9.7-28.33 7.75-26.3 6.68-23.55 5.6-20.8 5.6-17.5L5.6-17.5Q5.6-14.1 6.7-11.33 7.8-8.55 9.78-6.55 11.75-4.55 14.35-3.5 16.95-2.45 19.95-2.45L19.95-2.45Q22.4-2.45 24.58-3.15 26.75-3.85 28.65-5.05L28.65-5.05Q29.15-5.35 29.73-5.28 30.3-5.2 30.65-4.7L30.65-4.7Q31.1-4.15 30.98-3.53 30.85-2.9 30.3-2.55L30.3-2.55Q29.05-1.75 27.35-1.05 25.65-0.35 23.75 0.08 21.85 0.5 19.95 0.5L19.95 0.5Q16.35 0.5 13.2-0.8 10.05-2.1 7.6-4.48 5.15-6.85 3.78-10.15 2.4-13.45 2.4-17.5L2.4-17.5Q2.4-21.4 3.75-24.68 5.1-27.95 7.5-30.35 9.9-32.75 13.1-34.1 16.3-35.45 19.95-35.45L19.95-35.45Q22.8-35.45 25.45-34.65 28.1-33.85 30.25-32.4ZM38.95-35L38.95-35Q39.55-35 40.02-34.55 40.5-34.1 40.5-33.45L40.5-33.45 40.5-1.55Q40.45-0.9 39.97-0.45 39.5 0 38.9 0L38.9 0Q38.2 0 37.77-0.45 37.35-0.9 37.35-1.55L37.35-1.55 37.35-33.45Q37.35-34.1 37.8-34.55 38.25-35 38.95-35ZM62.4-35L62.4-35Q63.1-35 63.52-34.55 63.95-34.1 63.95-33.45L63.95-33.45 63.95-1.55Q63.9-0.9 63.47-0.45 63.05 0 62.35 0L62.35 0Q61.7 0 61.25-0.45 60.8-0.9 60.8-1.55L60.8-1.55 60.8-33.45Q60.8-34.1 61.27-34.55 61.75-35 62.4-35ZM38.5-16.45L38.7-19.35 62.45-19.35 62.4-16.45 38.5-16.45Z" opacity="1" transform="matrix(1,0,0,1,0,0)" fill="#8d021f" class="wordmark-text-0" data-fill-palette-color="primary" id="text-0"></path></svg></g></svg></g></svg></g></svg></g><g transform="matrix(1,0,0,1,36.672,0)"><svg viewBox="0 0 118.656 133.0337180100453" height="133.0337180100453" width="118.656"><g><svg xmlns="http://www.w3.org/2000/svg" xmlns:xlink="http://www.w3.org/1999/xlink" version="1.1" x="0" y="0" viewBox="20.628801345825195 17.070003509521484 58.741233825683594 65.85899353027344" enable-background="new 0 0 100 100" xml:space="preserve" height="133.0337180100453" width="118.656" class="icon-icon-0" data-fill-palette-color="accent" id="icon-0"><g fill="#ff5858" data-fill-palette-color="accent"><path d="M49.989 44.79c-2.873 0-5.21 2.337-5.21 5.21s2.337 5.21 5.21 5.21 5.21-2.337 5.21-5.21S52.861 44.79 49.989 44.79zM49.989 52.71c-1.494 0-2.71-1.216-2.71-2.71s1.216-2.71 2.71-2.71 2.71 1.216 2.71 2.71S51.483 52.71 49.989 52.71z" fill="#ff5858" data-fill-palette-color="accent"></path><path d="M74.567 53.022c-0.836-1.007-1.785-2.017-2.791-3.024 6.235-6.27 9.052-12.401 6.804-16.336-0.968-1.694-3.282-3.714-8.808-3.714-2.628 0-5.66 0.458-8.923 1.318-2.344-8.63-6.295-14.196-10.861-14.196s-8.517 5.566-10.861 14.196c-3.264-0.86-6.295-1.318-8.923-1.318-5.525 0-7.839 2.02-8.808 3.714C19.148 37.598 21.966 43.73 28.202 50c-6.236 6.27-9.054 12.401-6.805 16.338 0.968 1.694 3.283 3.714 8.808 3.714 2.628 0 5.66-0.458 8.923-1.318 2.344 8.63 6.295 14.195 10.861 14.195s8.517-5.565 10.86-14.195c3.263 0.859 6.294 1.318 8.922 1.318 0.001 0 0 0 0.001 0 5.524 0 7.838-2.02 8.807-3.714C80.431 63.098 79.006 58.369 74.567 53.022zM69.772 32.448c2.388 0 5.478 0.426 6.637 2.454 1.762 3.083-1.255 8.192-6.473 13.341-2.125-1.938-4.525-3.84-7.143-5.66-0.281-3.174-0.739-6.161-1.349-8.896C64.502 32.879 67.331 32.448 69.772 32.448zM55.262 59.229c-1.756 1.003-3.521 1.927-5.274 2.768-1.753-0.84-3.518-1.764-5.274-2.768-1.73-0.989-3.444-2.068-5.108-3.204-0.161-2.009-0.248-4.033-0.248-6.025s0.086-4.017 0.248-6.025c1.665-1.136 3.378-2.215 5.109-3.204 1.756-1.003 3.521-1.927 5.273-2.768 1.753 0.841 3.518 1.764 5.274 2.768 1.771 1.012 3.478 2.073 5.106 3.167 0.163 2.021 0.25 4.057 0.25 6.062 0 1.993-0.086 4.016-0.248 6.025C58.707 57.162 56.993 58.241 55.262 59.229zM60.045 59.258c-0.267 2.183-0.625 4.314-1.062 6.335-1.959-0.62-3.987-1.375-6.054-2.262 1.192-0.608 2.385-1.252 3.573-1.931C57.723 60.703 58.901 59.986 60.045 59.258zM47.047 63.331c-2.066 0.886-4.095 1.642-6.054 2.262-0.438-2.021-0.795-4.152-1.062-6.334 1.144 0.728 2.322 1.445 3.542 2.142C44.662 62.079 45.855 62.723 47.047 63.331zM36.961 54.139C35.167 52.8 33.465 51.408 31.905 50c1.56-1.408 3.262-2.8 5.056-4.139-0.065 1.354-0.103 2.733-0.103 4.139S36.896 52.784 36.961 54.139zM39.932 40.743c0.267-2.183 0.625-4.314 1.062-6.335 1.959 0.62 3.988 1.375 6.054 2.262-1.192 0.608-2.386 1.252-3.573 1.931C42.254 39.298 41.075 40.015 39.932 40.743zM52.929 36.669c2.066-0.886 4.095-1.642 6.054-2.262 0.438 2.024 0.796 4.159 1.063 6.346-1.154-0.735-2.329-1.459-3.544-2.153C55.314 37.922 54.122 37.277 52.929 36.669zM63.013 45.798c1.845 1.356 3.543 2.753 5.102 4.164-1.571 1.42-3.288 2.826-5.098 4.177 0.065-1.354 0.102-2.733 0.102-4.139C63.119 48.573 63.08 47.173 63.013 45.798zM49.989 19.57c3.579 0 6.536 5.237 8.415 12.408-2.712 0.848-5.545 1.947-8.416 3.27-2.87-1.323-5.703-2.421-8.415-3.27C43.453 24.808 46.41 19.57 49.989 19.57zM23.568 34.902c1.159-2.028 4.249-2.454 6.637-2.454 2.441 0 5.271 0.431 8.328 1.239-0.609 2.731-1.067 5.713-1.348 8.883-2.656 1.847-5.053 3.755-7.146 5.671C24.822 43.093 21.807 37.985 23.568 34.902zM30.205 67.552c-2.388 0-5.478-0.426-6.637-2.455-1.761-3.083 1.254-8.191 6.471-13.339 2.093 1.916 4.49 3.825 7.146 5.672 0.281 3.169 0.739 6.152 1.348 8.883C35.475 67.121 32.646 67.552 30.205 67.552zM49.989 80.43c-3.579 0-6.536-5.237-8.416-12.407 2.712-0.849 5.545-1.947 8.415-3.27 2.871 1.322 5.704 2.421 8.416 3.269C56.524 75.193 53.567 80.43 49.989 80.43zM76.409 65.098c-1.159 2.029-4.248 2.455-6.636 2.455 0 0-0.001 0-0.001 0-2.441 0-5.27-0.432-8.327-1.239 0.609-2.731 1.067-5.713 1.348-8.883 2.67-1.857 5.079-3.777 7.18-5.703 0.964 0.964 1.873 1.93 2.671 2.892C76.315 59.041 77.688 62.86 76.409 65.098z" fill="#ff5858" data-fill-palette-color="accent"></path></g></svg></g></svg></g><g></g></svg></g></svg></g></svg></g></svg></g><defs></defs></svg><rect width="320" height="360" fill="none" stroke="none" visibility="hidden"></rect></g></svg></g></svg>